<svg width="64" height="64" viewBox="0 0 64 64" fill="none" xmlns="http://www.w3.org/2000/svg">
<g clip-path="url(#clip0_11_3364)">
<rect width="64" height="64" rx="32" fill="#EFF6FF"/>
<path d="M1.5 -9V13V-9ZM-9 2H12H-9Z" stroke="#BFDBFE"/>
<path d="M1.5 32V54V32ZM-9 43H12H-9Z" stroke="#BFDBFE"/>
<path d="M1.5 10V32V10ZM-9 21H12H-9Z" stroke="#BFDBFE"/>
<path d="M1.5 51V73V51ZM-9 62H12H-9Z" stroke="#BFDBFE"/>
<path d="M22 -9V13V-9ZM12 2H32H12Z" stroke="#BFDBFE"/>
<path d="M22 32V54V32ZM12 43H32H12Z" stroke="#BFDBFE"/>
<path d="M22 10V32V10ZM12 21H32H12Z" stroke="#BFDBFE"/>
<path d="M22 51V73V51ZM12 62H32H12Z" stroke="#BFDBFE"/>
<path d="M42.5 -9V13V-9ZM32 2H53H32Z" stroke="#BFDBFE"/>
<path d="M42.5 32V54V32ZM32 43H53H32Z" stroke="#BFDBFE"/>
<path d="M42.5 10V32V10ZM32 21H53H32Z" stroke="#BFDBFE"/>
<path d="M42.5 51V73V51ZM32 62H53H32Z" stroke="#BFDBFE"/>
<path d="M63 -9V13V-9ZM53 2H73H53Z" stroke="#BFDBFE"/>
<path d="M63 32V54V32ZM53 43H73H53Z" stroke="#BFDBFE"/>
<path d="M63 10V32V10ZM53 21H73H53Z" stroke="#BFDBFE"/>
<path d="M63 51V73V51ZM53 62H73H53Z" stroke="#BFDBFE"/>
</g>
<rect x="2" y="2" width="60" height="60" rx="30" stroke="#BFDBFE" stroke-width="4"/>
<path fill-rule="evenodd" clip-rule="evenodd" d="M42 44C44.2091 44 46 42.2091 46 40V28C46 25.7909 44.2091 24 42 24H34.8284C34.5632 24 34.3089 23.8946 34.1213 23.7071L31.2929 20.8787C30.7303 20.3161 29.9672 20 29.1716 20H22C19.7909 20 18 21.7909 18 24V40C18 42.2091 19.7909 44 22 44H42ZM33 30C33 29.4477 32.5523 29 32 29C31.4477 29 31 29.4477 31 30L31 35.5858L28.7071 33.2929C28.3166 32.9024 27.6834 32.9024 27.2929 33.2929C26.9024 33.6834 26.9024 34.3166 27.2929 34.7071L31.2929 38.7071C31.4804 38.8946 31.7348 39 32 39C32.2652 39 32.5196 38.8946 32.7071 38.7071L36.7071 34.7071C37.0976 34.3166 37.0976 33.6834 36.7071 33.2929C36.3166 32.9024 35.6834 32.9024 35.2929 33.2929L33 35.5858L33 30Z" fill="#1D4ED8"/>
<defs>
<clipPath id="clip0_11_3364">
<rect width="64" height="64" rx="32" fill="white"/>
</clipPath>
</defs>
</svg>
